<svg width="1440" height="900" viewBox="0 0 1440 900" fill="none" xmlns="http://www.w3.org/2000/svg">
  <rect width="1440" height="900" fill="#050505"/>
  <rect x="36" y="32" width="1368" height="836" rx="18" fill="#0d0d10" stroke="#25222d"/>
  <rect x="36" y="32" width="1368" height="48" rx="18" fill="#15151b"/>
  <circle cx="62" cy="56" r="6" fill="#ff6b6b"/>
  <circle cx="84" cy="56" r="6" fill="#ffd479"/>
  <circle cx="106" cy="56" r="6" fill="#7dffa2"/>
  <text x="132" y="61" fill="#cac3d9" font-family="Consolas, monospace" font-size="16">C:\customer-app\CrablockFile</text>

  <rect x="58" y="104" width="252" height="736" rx="12" fill="#0a0a0d" stroke="#23202b"/>
  <text x="82" y="139" fill="#7dffa2" font-family="Consolas, monospace" font-size="14" letter-spacing="2">PROJECT ROOT</text>
  <text x="84" y="180" fill="#817b91" font-family="Consolas, monospace" font-size="17">customer-app/</text>
  <text x="108" y="219" fill="#cac3d9" font-family="Consolas, monospace" font-size="17">CrablockFile</text>
  <text x="108" y="256" fill="#817b91" font-family="Consolas, monospace" font-size="17">.crablock/</text>
  <text x="108" y="293" fill="#817b91" font-family="Consolas, monospace" font-size="17">apps/web/dist/</text>
  <text x="108" y="330" fill="#817b91" font-family="Consolas, monospace" font-size="17">apps/web/desktop/runtime/</text>
  <text x="108" y="367" fill="#817b91" font-family="Consolas, monospace" font-size="17">.env</text>
  <rect x="78" y="197" width="204" height="34" rx="6" fill="#05e777" fill-opacity=".1" stroke="#7dffa2"/>

  <rect x="334" y="104" width="648" height="736" rx="12" fill="#111116" stroke="#282431"/>
  <rect x="334" y="104" width="648" height="42" rx="12" fill="#171721"/>
  <text x="358" y="132" fill="#efeaff" font-family="Consolas, monospace" font-size="15">CrablockFile</text>
  <text x="358" y="178" fill="#6e6a78" font-family="Consolas, monospace" font-size="15">01</text>
  <text x="402" y="178" fill="#cbbeff" font-family="Consolas, monospace" font-size="15">version:</text>
  <text x="506" y="178" fill="#7dffa2" font-family="Consolas, monospace" font-size="15">2</text>
  <text x="358" y="209" fill="#6e6a78" font-family="Consolas, monospace" font-size="15">02</text>
  <text x="402" y="209" fill="#cbbeff" font-family="Consolas, monospace" font-size="15">framework:</text>
  <text x="528" y="209" fill="#ffd479" font-family="Consolas, monospace" font-size="15">react-nestjs</text>
  <text x="358" y="240" fill="#6e6a78" font-family="Consolas, monospace" font-size="15">03</text>
  <text x="402" y="240" fill="#cbbeff" font-family="Consolas, monospace" font-size="15">app_root:</text>
  <text x="522" y="240" fill="#e2e2e2" font-family="Consolas, monospace" font-size="15">.</text>
  <text x="358" y="271" fill="#6e6a78" font-family="Consolas, monospace" font-size="15">04</text>
  <text x="402" y="271" fill="#cbbeff" font-family="Consolas, monospace" font-size="15">open_url:</text>
  <text x="522" y="271" fill="#ffd479" font-family="Consolas, monospace" font-size="15">http://127.0.0.1:5175</text>
  <text x="358" y="318" fill="#6e6a78" font-family="Consolas, monospace" font-size="15">05</text>
  <text x="402" y="318" fill="#cbbeff" font-family="Consolas, monospace" font-size="15">include_paths:</text>
  <text x="402" y="349" fill="#e2e2e2" font-family="Consolas, monospace" font-size="15">- .crablock</text>
  <text x="402" y="380" fill="#e2e2e2" font-family="Consolas, monospace" font-size="15">- apps/web/dist</text>
  <text x="402" y="411" fill="#e2e2e2" font-family="Consolas, monospace" font-size="15">- apps/web/desktop/runtime</text>
  <text x="358" y="458" fill="#6e6a78" font-family="Consolas, monospace" font-size="15">09</text>
  <text x="402" y="458" fill="#cbbeff" font-family="Consolas, monospace" font-size="15">runtime_assets:</text>
  <text x="402" y="489" fill="#e2e2e2" font-family="Consolas, monospace" font-size="15">- name: node-windows-x64</text>
  <text x="422" y="520" fill="#e2e2e2" font-family="Consolas, monospace" font-size="15">runtime: node</text>
  <text x="422" y="551" fill="#e2e2e2" font-family="Consolas, monospace" font-size="15">executable: node.exe</text>
  <text x="422" y="582" fill="#e2e2e2" font-family="Consolas, monospace" font-size="15">bundled_path: apps/web/desktop/runtime/node</text>
  <text x="358" y="629" fill="#6e6a78" font-family="Consolas, monospace" font-size="15">14</text>
  <text x="402" y="629" fill="#cbbeff" font-family="Consolas, monospace" font-size="15">commands:</text>
  <text x="402" y="660" fill="#e2e2e2" font-family="Consolas, monospace" font-size="15">migrate: { run: [node, .crablock/migrate.cjs] }</text>
  <text x="358" y="707" fill="#6e6a78" font-family="Consolas, monospace" font-size="15">17</text>
  <text x="402" y="707" fill="#cbbeff" font-family="Consolas, monospace" font-size="15">services:</text>
  <text x="402" y="738" fill="#e2e2e2" font-family="Consolas, monospace" font-size="15">api: { run: [node, .crablock/api.cjs], ports: [4000] }</text>
  <text x="402" y="769" fill="#e2e2e2" font-family="Consolas, monospace" font-size="15">web: { run: [node, .crablock/static-server.cjs], ports: [5175] }</text>
  <rect x="386" y="154" width="178" height="102" rx="6" fill="#663af3" fill-opacity=".13" stroke="#cbbeff"/>
  <rect x="386" y="296" width="476" height="132" rx="6" fill="#05e777" fill-opacity=".08" stroke="#7dffa2"/>
  <rect x="386" y="436" width="536" height="166" rx="6" fill="#ffd479" fill-opacity=".08" stroke="#ffd479"/>
  <rect x="386" y="612" width="546" height="178" rx="6" fill="#663af3" fill-opacity=".1" stroke="#cbbeff"/>

  <rect x="1010" y="104" width="352" height="736" rx="12" fill="#0a0a0d" stroke="#23202b"/>
  <text x="1034" y="139" fill="#7dffa2" font-family="Consolas, monospace" font-size="14" letter-spacing="2">RUNTIME CONTRACT</text>
  <rect x="1034" y="174" width="304" height="96" rx="10" fill="#111116" stroke="#282431"/>
  <text x="1056" y="207" fill="#efeaff" font-family="Arial, sans-serif" font-size="20" font-weight="700">Package Scope</text>
  <text x="1056" y="238" fill="#a9a2b8" font-family="Arial, sans-serif" font-size="15">Copy only production files.</text>
  <rect x="1034" y="298" width="304" height="96" rx="10" fill="#111116" stroke="#282431"/>
  <text x="1056" y="331" fill="#efeaff" font-family="Arial, sans-serif" font-size="20" font-weight="700">Portable Runtime</text>
  <text x="1056" y="362" fill="#a9a2b8" font-family="Arial, sans-serif" font-size="15">Resolve node/php without installs.</text>
  <rect x="1034" y="422" width="304" height="116" rx="10" fill="#111116" stroke="#282431"/>
  <text x="1056" y="455" fill="#efeaff" font-family="Arial, sans-serif" font-size="20" font-weight="700">Commands</text>
  <text x="1056" y="486" fill="#a9a2b8" font-family="Arial, sans-serif" font-size="15">Run setup and migrate once.</text>
  <text x="1056" y="512" fill="#a9a2b8" font-family="Arial, sans-serif" font-size="15">Use argv arrays, not shell strings.</text>
  <rect x="1034" y="566" width="304" height="116" rx="10" fill="#111116" stroke="#282431"/>
  <text x="1056" y="599" fill="#efeaff" font-family="Arial, sans-serif" font-size="20" font-weight="700">Services and Routes</text>
  <text x="1056" y="630" fill="#a9a2b8" font-family="Arial, sans-serif" font-size="15">Start api on 4000.</text>
  <text x="1056" y="656" fill="#a9a2b8" font-family="Arial, sans-serif" font-size="15">Open web on 5175.</text>
  <rect x="1034" y="710" width="304" height="88" rx="10" fill="#111116" stroke="#282431"/>
  <text x="1056" y="743" fill="#efeaff" font-family="Arial, sans-serif" font-size="20" font-weight="700">Customer Launch</text>
  <text x="1056" y="774" fill="#a9a2b8" font-family="Arial, sans-serif" font-size="15">Runner reads manifest metadata.</text>
</svg>
